<svg width="25.000000" height="25.000000" viewBox="0 0 25 25" fill="none" xmlns="http://www.w3.org/2000/svg" xmlns:xlink="http://www.w3.org/1999/xlink">
	<desc>
			Created with Pixso.
	</desc>
	<defs>
		<clipPath id="clip177_2235">
			<rect id="icons8_secured_letter 1" rx="0.000000" width="24.000000" height="24.000000" transform="translate(0.500000 0.500000)" fill="white" fill-opacity="0"/>
		</clipPath>
		<linearGradient x1="12.500000" y1="7.000000" x2="12.500000" y2="25.000000" id="paint_linear_177_2236_0" gradientUnits="userSpaceOnUse">
			<stop stop-color="#4ABCEC"/>
			<stop offset="1.000000" stop-color="#4A8BEC"/>
		</linearGradient>
	</defs>
	<rect id="icons8_secured_letter 1" rx="0.000000" width="24.000000" height="24.000000" transform="translate(0.500000 0.500000)" fill="#FFFFFF" fill-opacity="0"/>
	<g clip-path="url(#clip177_2235)">
		<path id="Vector" d="M0 7L0 7.5L0 25L25 25L25 7L0 7ZM1 8L24 8L24 9.28C23.77 9.47 14.9 17.18 14.17 17.82C13.52 18.38 12.83 18.5 12.5 18.5C12.16 18.5 11.47 18.38 10.82 17.82C10.64 17.66 9.31 16.5 8.34 15.66L8.33 15.65L8.33 15.65C5.48 13.17 1.16 9.42 1 9.28L1 8ZM1 10.6C1.87 11.36 4.92 14.01 7.54 16.28L1 21.45L1 10.6ZM24 10.6L24 21.45L17.44 16.3C20.06 14.02 23.12 11.36 24 10.6ZM8.3 16.95C8.92 17.49 10.03 18.45 10.17 18.57C11.02 19.31 11.93 19.49 12.5 19.49C13.06 19.49 13.97 19.31 14.82 18.57C14.96 18.45 16.06 17.49 16.67 16.96L24 22.73L24 24L1 24L1 22.73L8.3 16.95Z" fill="url(#paint_linear_177_2236_0)" fill-opacity="1.000000" fill-rule="nonzero"/>
	</g>
</svg>
