<svg width="25.000000" height="25.000000" viewBox="0 0 25 25" fill="none" xmlns="http://www.w3.org/2000/svg" xmlns:xlink="http://www.w3.org/1999/xlink">
	<desc>
			Created with Pixso.
	</desc>
	<defs>
		<clipPath id="clip177_2232">
			<rect id="icons8_phone_2 1" rx="0.000000" width="24.000000" height="24.000000" transform="translate(0.500000 0.500000)" fill="white" fill-opacity="0"/>
		</clipPath>
		<linearGradient x1="12.503451" y1="1.489258" x2="12.503451" y2="23.500813" id="paint_linear_177_2233_0" gradientUnits="userSpaceOnUse">
			<stop stop-color="#4ABCEC"/>
			<stop offset="1.000000" stop-color="#4A8BEC"/>
		</linearGradient>
	</defs>
	<rect id="icons8_phone_2 1" rx="0.000000" width="24.000000" height="24.000000" transform="translate(0.500000 0.500000)" fill="#FFFFFF" fill-opacity="0"/>
	<g clip-path="url(#clip177_2232)">
		<path id="Vector" d="M5.91 1.49C5.53 1.46 5.1 1.57 4.71 1.85C4.36 2.09 3.61 2.68 2.91 3.36C2.56 3.69 2.23 4.04 1.97 4.39C1.71 4.73 1.48 5.05 1.5 5.5C1.51 5.91 1.55 7.13 2.42 8.99C3.3 10.84 4.99 13.39 8.29 16.7C11.6 20 14.15 21.69 16 22.57C17.86 23.44 19.08 23.48 19.49 23.5C19.94 23.51 20.25 23.28 20.6 23.02C20.94 22.76 21.29 22.43 21.63 22.08C22.3 21.38 22.9 20.63 23.14 20.28C23.69 19.5 23.6 18.57 22.98 18.13C22.6 17.86 19.04 15.5 18.5 15.17C17.96 14.83 17.34 14.99 16.78 15.28C16.34 15.51 15.15 16.19 14.81 16.39C14.55 16.23 13.58 15.58 11.5 13.49C9.41 11.41 8.76 10.43 8.6 10.18C8.79 9.84 9.47 8.66 9.71 8.21C10 7.65 10.16 7.02 9.82 6.47C9.67 6.24 9 5.23 8.33 4.21C7.66 3.19 7.02 2.23 6.85 2L6.85 2C6.64 1.7 6.3 1.52 5.91 1.49ZM5.82 2.51C5.96 2.53 6.04 2.58 6.04 2.58C6.12 2.69 6.82 3.75 7.5 4.76C8.17 5.78 8.85 6.82 8.97 7.01C8.99 7.04 9.02 7.37 8.82 7.74L8.82 7.74C8.6 8.16 7.57 9.96 7.57 9.96L7.43 10.21L7.58 10.46C7.58 10.46 8.34 11.76 10.79 14.2C13.23 16.64 14.52 17.41 14.52 17.41L14.77 17.56L15.03 17.41C15.03 17.41 16.82 16.39 17.25 16.16C17.61 15.97 17.95 16 17.99 16.02C18.33 16.23 22.17 18.79 22.41 18.95C22.42 18.96 22.63 19.27 22.32 19.71L22.32 19.71C22.14 19.97 21.53 20.74 20.91 21.39C20.59 21.71 20.27 22.02 20 22.22C19.72 22.43 19.48 22.49 19.52 22.5C19.09 22.48 18.15 22.47 16.43 21.66C14.7 20.85 12.24 19.23 9 15.99C5.76 12.75 4.14 10.28 3.33 8.56C2.52 6.83 2.51 5.89 2.5 5.47C2.5 5.51 2.56 5.26 2.77 4.99C2.97 4.72 3.27 4.39 3.6 4.08C4.25 3.45 5.02 2.85 5.28 2.66L5.28 2.67C5.5 2.51 5.69 2.5 5.82 2.51Z" fill="url(#paint_linear_177_2233_0)" fill-opacity="1.000000" fill-rule="nonzero"/>
	</g>
</svg>
